<svg width="32" height="32" viewBox="0 0 32 32" fill="none" xmlns="http://www.w3.org/2000/svg">
<path fill-rule="evenodd" clip-rule="evenodd" d="M16 6C13.9726 6 12.2055 6.67995 10.9427 7.94272C9.67995 9.20549 9 10.9726 9 13V13.0175V13.035V13.0523V13.0696V13.0868V13.1038V13.1208V13.1377V13.1545V13.1713V13.1879V13.2044V13.2209V13.2373V13.2536V13.2698V13.2859V13.3019V13.3179V13.3337V13.3495V13.3652V13.3808V13.3963V13.4118V13.4271V13.4424V13.4576V13.4727V13.4878V13.5027V13.5176V13.5324V13.5471V13.5617V13.5763V13.5907V13.6051V13.6195V13.6337V13.6479V13.6619V13.676V13.6899V13.7038V13.7175V13.7312V13.7449V13.7584V13.7719V13.7853V13.7987V13.8119V13.8251V13.8382V13.8513V13.8643V13.8772V13.89V13.9028V13.9155V13.9281V13.9406V13.9531V13.9655V13.9779V13.9902V14.0024V14.0145V14.0266V14.0386V14.0506V14.0624V14.0743V14.086V14.0977V14.1093V14.1209V14.1324V14.1438V14.1552V14.1665V14.1777V14.1889V14.2V14.2111V14.2221V14.233V14.2439V14.2547V14.2655V14.2761V14.2868V14.2974V14.3079V14.3184V14.3288V14.3391V14.3494V14.3597V14.3698V14.38V14.39V14.4001V14.41V14.4199V14.4298V14.4396V14.4493V14.459V14.4687V14.4783V14.4878V14.4973V14.5067V14.5161V14.5255V14.5348V14.544V14.5532V14.5623V14.5714V14.5805V14.5895V14.5984V14.6073V14.6162V14.625V14.6338V14.6425V14.6512V14.6598V14.6684V14.6769V14.6854V14.6939V14.7023V14.7107V14.719V14.7273V14.7355V14.7437V14.7519V14.76V14.7681V14.7761V14.7841V14.7921V14.8V14.8079V14.8158V14.8236V14.8314V14.8391V14.8468V14.8545V14.8621V14.8697V14.8772V14.8848V14.8923V14.8997V14.9071V14.9145V14.9219V14.9292V14.9365V14.9438V14.951V14.9582V14.9653V14.9725V14.9796V14.9867V14.9937V15.0007V15.0077V15.0147V15.0216V15.0285V15.0354V15.0423V15.0491V15.0559V15.0627V15.0694V15.0761V15.0828V15.0895V15.0961V15.1028V15.1094V15.116V15.1225V15.129V15.1356V15.1421V15.1485V15.155V15.1614V15.1678V15.1742V15.1806V15.1869V15.1933V15.1996V15.2059V15.2122V15.2184V15.2247V15.2309V15.2371V15.2433V15.2495V15.2557V15.2618V15.2679V15.2741V15.2802V15.2863V15.2924V15.2984V15.3045V15.3105V15.3166V15.3226V15.3286V15.3346V15.3406V15.3466V15.3526V15.3586V15.3645V15.3705V15.3764V15.3823V15.3883V15.3942V15.4001V15.406V15.4119V15.4178V15.4237V15.4296V15.4355V15.4413V15.4472V15.4531V15.459V15.4648V15.4707V15.4766V15.4824V15.4883V15.4941V15.5V15.5059V15.5117V15.5176V15.5234V15.5293V15.5352V15.541V15.5469V15.5528V15.5587V15.5645V15.5704V15.5763V15.5822V15.5881V15.594V15.5999V15.6058V15.6117V15.6177V15.6236V15.6295V15.6355V15.6414V15.6474V15.6534V15.6594V15.6654V15.6714V15.6774V15.6834V15.6895V15.6955V15.7016V15.7076V15.7137V15.7198V15.7259V15.7321V15.7382V15.7443V15.7505V15.7567V15.7629V15.7691V15.7753V15.7816V15.7878V15.7941V15.8004V15.8067V15.8131V15.8194V15.8258V15.8322V15.8386V15.845V15.8515V15.8579V15.8644V15.871V15.8775V15.884V15.8906V15.8972V15.9039V15.9105V15.9172V15.9239V15.9306V15.9373V15.9441V15.9509V15.9577V15.9646V15.9715V15.9784V15.9853V15.9923V15.9993V16.0063V16.0133V16.0204V16.0275V16.0347V16.0418V16.049V16.0562V16.0635V16.0708V16.0781V16.0855V16.0929V16.1003V16.1077V16.1152V16.1228V16.1303V16.1379V16.1455V16.1532V16.1609V16.1686V16.1764V16.1842V16.1921V16.2V16.2079V16.2159V16.2239V16.2319V16.24V16.2481V16.2563V16.2645V16.2727V16.281V16.2893V16.2977V16.3061V16.3146V16.3231V16.3316V16.3402V16.3488V16.3575V16.3662V16.375V16.3838V16.3927V16.4016V16.4105V16.4195V16.4286V16.4377V16.4468V16.456V16.4652V16.4745V16.4839V16.4933V16.5027V16.5122V16.5217V16.5313V16.541V16.5507V16.5604V16.5702V16.5801V16.59V16.5999V16.61V16.62V16.6302V16.6403V16.6506V16.6609V16.6712V16.6816V16.6921V16.7026V16.7132V16.7239V16.7345V16.7453V16.7561V16.767V16.7779V16.7889V16.8V16.8111V16.8223V16.8335V16.8448V16.8562V16.8676V16.8791V16.8907V16.9023V16.914V16.9257V16.9376V16.9494V16.9614V16.9734V16.9855V16.9976V17.0098V17.0221V17.0345V17.0469V17.0594V17.0719V17.0845V17.0972V17.11V17.1228V17.1357V17.1487V17.1618V17.1749V17.1881V17.2013V17.2147V17.2281V17.2416V17.2551V17.2688V17.2825V17.2963V17.3101V17.324V17.3381V17.3521V17.3663V17.3805V17.3949V17.4093V17.4237V17.4383V17.4529V17.4676V17.4824V17.4973V17.5122V17.5273V17.5424V17.5576V17.5729V17.5882V17.6037V17.6192V17.6348V17.6505V17.6663V17.6821V17.6981V17.7141V17.7302V17.7464V17.7627V17.7791V17.7956V17.8121V17.8287V17.8455V17.8623V17.8792V17.8962V17.9132V17.9304V17.9477V17.965V17.9825V18C9 18.7991 8.59873 19.8678 8.10792 20.8368C7.87344 21.2997 7.63794 21.7028 7.46103 21.9901C7.37285 22.1333 7.29993 22.2465 7.24993 22.3227C7.22494 22.3608 7.20573 22.3895 7.19326 22.408L7.17973 22.428L7.17707 22.4319L7.177 22.432L7.1769 22.4321L7.1767 22.4324C6.96586 22.7382 6.9419 23.1357 7.11453 23.4647C7.28725 23.7938 7.62829 24 8 24H12.127C12.1736 24.1804 12.2329 24.3578 12.3045 24.5307C12.5055 25.016 12.8001 25.457 13.1716 25.8284C13.543 26.1999 13.984 26.4945 14.4693 26.6955C14.9546 26.8965 15.4747 27 16 27C16.5253 27 17.0454 26.8965 17.5307 26.6955C18.016 26.4945 18.457 26.1999 18.8284 25.8284C19.1999 25.457 19.4945 25.016 19.6955 24.5307C19.7672 24.3578 19.8264 24.1804 19.873 24H24C24.3717 24 24.7127 23.7938 24.8855 23.4647C25.0582 23.1356 25.0341 22.738 24.8231 22.4321L24.823 22.432L24.8229 22.4319L24.8203 22.428L24.8067 22.408C24.7943 22.3895 24.7751 22.3608 24.7501 22.3227C24.7001 22.2465 24.6272 22.1333 24.539 21.9901C24.3621 21.7028 24.1266 21.2997 23.8921 20.8368C23.4013 19.8678 23 18.7991 23 18V17.9825V17.965V17.9477V17.9304V17.9132V17.8962V17.8792V17.8623V17.8455V17.8287V17.8121V17.7956V17.7791V17.7627V17.7464V17.7302V17.7141V17.6981V17.6821V17.6663V17.6505V17.6348V17.6192V17.6037V17.5882V17.5729V17.5576V17.5424V17.5273V17.5122V17.4973V17.4824V17.4676V17.4529V17.4383V17.4237V17.4093V17.3949V17.3805V17.3663V17.3521V17.3381V17.324V17.3101V17.2963V17.2825V17.2688V17.2551V17.2416V17.2281V17.2147V17.2013V17.1881V17.1749V17.1618V17.1487V17.1357V17.1228V17.11V17.0972V17.0845V17.0719V17.0594V17.0469V17.0345V17.0221V17.0098V16.9976V16.9855V16.9734V16.9614V16.9494V16.9376V16.9257V16.914V16.9023V16.8907V16.8791V16.8676V16.8562V16.8448V16.8335V16.8223V16.8111V16.8V16.7889V16.7779V16.767V16.7561V16.7453V16.7345V16.7239V16.7132V16.7026V16.6921V16.6816V16.6712V16.6609V16.6506V16.6403V16.6302V16.62V16.61V16.5999V16.59V16.5801V16.5702V16.5604V16.5507V16.541V16.5313V16.5217V16.5122V16.5027V16.4933V16.4839V16.4745V16.4652V16.456V16.4468V16.4377V16.4286V16.4195V16.4105V16.4016V16.3927V16.3838V16.375V16.3662V16.3575V16.3488V16.3402V16.3316V16.3231V16.3146V16.3061V16.2977V16.2893V16.281V16.2727V16.2645V16.2563V16.2481V16.24V16.2319V16.2239V16.2159V16.2079V16.2V16.1921V16.1842V16.1764V16.1686V16.1609V16.1532V16.1455V16.1379V16.1303V16.1228V16.1152V16.1077V16.1003V16.0929V16.0855V16.0781V16.0708V16.0635V16.0562V16.049V16.0418V16.0347V16.0275V16.0204V16.0133V16.0063V15.9993V15.9923V15.9853V15.9784V15.9715V15.9646V15.9577V15.9509V15.9441V15.9373V15.9306V15.9239V15.9172V15.9105V15.9039V15.8972V15.8906V15.884V15.8775V15.871V15.8644V15.8579V15.8515V15.845V15.8386V15.8322V15.8258V15.8194V15.8131V15.8067V15.8004V15.7941V15.7878V15.7816V15.7753V15.7691V15.7629V15.7567V15.7505V15.7443V15.7382V15.7321V15.7259V15.7198V15.7137V15.7076V15.7016V15.6955V15.6895V15.6834V15.6774V15.6714V15.6654V15.6594V15.6534V15.6474V15.6414V15.6355V15.6295V15.6236V15.6177V15.6117V15.6058V15.5999V15.594V15.5881V15.5822V15.5763V15.5704V15.5645V15.5587V15.5528V15.5469V15.541V15.5352V15.5293V15.5234V15.5176V15.5117V15.5059V15.5V15.4941V15.4883V15.4824V15.4766V15.4707V15.4648V15.459V15.4531V15.4472V15.4413V15.4355V15.4296V15.4237V15.4178V15.4119V15.406V15.4001V15.3942V15.3883V15.3823V15.3764V15.3705V15.3645V15.3586V15.3526V15.3466V15.3406V15.3346V15.3286V15.3226V15.3166V15.3105V15.3045V15.2984V15.2924V15.2863V15.2802V15.2741V15.2679V15.2618V15.2557V15.2495V15.2433V15.2371V15.2309V15.2247V15.2184V15.2122V15.2059V15.1996V15.1933V15.1869V15.1806V15.1742V15.1678V15.1614V15.155V15.1485V15.1421V15.1356V15.129V15.1225V15.116V15.1094V15.1028V15.0961V15.0895V15.0828V15.0761V15.0694V15.0627V15.0559V15.0491V15.0423V15.0354V15.0285V15.0216V15.0147V15.0077V15.0007V14.9937V14.9867V14.9796V14.9725V14.9653V14.9582V14.951V14.9438V14.9365V14.9292V14.9219V14.9145V14.9071V14.8997V14.8923V14.8848V14.8772V14.8697V14.8621V14.8545V14.8468V14.8391V14.8314V14.8236V14.8158V14.8079V14.8V14.7921V14.7841V14.7761V14.7681V14.76V14.7519V14.7437V14.7355V14.7273V14.719V14.7107V14.7023V14.6939V14.6854V14.6769V14.6684V14.6598V14.6512V14.6425V14.6338V14.625V14.6162V14.6073V14.5984V14.5895V14.5805V14.5714V14.5623V14.5532V14.544V14.5348V14.5255V14.5161V14.5067V14.4973V14.4878V14.4783V14.4687V14.459V14.4493V14.4396V14.4298V14.4199V14.41V14.4001V14.39V14.38V14.3698V14.3597V14.3494V14.3391V14.3288V14.3184V14.3079V14.2974V14.2868V14.2761V14.2655V14.2547V14.2439V14.233V14.2221V14.2111V14.2V14.1889V14.1777V14.1665V14.1552V14.1438V14.1324V14.1209V14.1093V14.0977V14.086V14.0743V14.0624V14.0506V14.0386V14.0266V14.0145V14.0024V13.9902V13.9779V13.9655V13.9531V13.9406V13.9281V13.9155V13.9028V13.89V13.8772V13.8643V13.8513V13.8382V13.8251V13.8119V13.7987V13.7853V13.7719V13.7584V13.7449V13.7312V13.7175V13.7038V13.6899V13.676V13.6619V13.6479V13.6337V13.6195V13.6051V13.5907V13.5763V13.5617V13.5471V13.5324V13.5176V13.5027V13.4878V13.4727V13.4576V13.4424V13.4271V13.4118V13.3963V13.3808V13.3652V13.3495V13.3337V13.3179V13.3019V13.2859V13.2698V13.2536V13.2373V13.2209V13.2044V13.1879V13.1713V13.1545V13.1377V13.1208V13.1038V13.0868V13.0696V13.0523V13.035V13.0175V13C23 10.9726 22.3201 9.20549 21.0573 7.94272C19.7945 6.67995 18.0274 6 16 6ZM17.7321 24H16H14.268C14.3552 24.151 14.4619 24.2904 14.5858 24.4142C14.7715 24.5999 14.992 24.7472 15.2346 24.8478C15.4773 24.9483 15.7374 25 16 25C16.2626 25 16.5227 24.9483 16.7654 24.8478C17.008 24.7472 17.2285 24.5999 17.4142 24.4142C17.5381 24.2904 17.6448 24.151 17.7321 24ZM20 22H22.2422C22.1977 21.9157 22.1528 21.8291 22.1079 21.7405C21.5987 20.7352 21 19.304 21 18V17.9825V17.965V17.9477V17.9304V17.9132V17.8962V17.8792V17.8623V17.8455V17.8287V17.8121V17.7956V17.7791V17.7627V17.7464V17.7302V17.7141V17.6981V17.6821V17.6663V17.6505V17.6348V17.6192V17.6037V17.5882V17.5729V17.5576V17.5424V17.5273V17.5122V17.4973V17.4824V17.4676V17.4529V17.4383V17.4237V17.4093V17.3949V17.3805V17.3663V17.3521V17.3381V17.324V17.3101V17.2963V17.2825V17.2688V17.2551V17.2416V17.2281V17.2147V17.2013V17.1881V17.1749V17.1618V17.1487V17.1357V17.1228V17.11V17.0972V17.0845V17.0719V17.0594V17.0469V17.0345V17.0221V17.0098V16.9976V16.9855V16.9734V16.9614V16.9494V16.9376V16.9257V16.914V16.9023V16.8907V16.8791V16.8676V16.8562V16.8448V16.8335V16.8223V16.8111V16.8V16.7889V16.7779V16.767V16.7561V16.7453V16.7345V16.7239V16.7132V16.7026V16.6921V16.6816V16.6712V16.6609V16.6506V16.6403V16.6302V16.62V16.61V16.5999V16.59V16.5801V16.5702V16.5604V16.5507V16.541V16.5313V16.5217V16.5122V16.5027V16.4933V16.4839V16.4745V16.4652V16.456V16.4468V16.4377V16.4286V16.4195V16.4105V16.4016V16.3927V16.3838V16.375V16.3662V16.3575V16.3488V16.3402V16.3316V16.3231V16.3146V16.3061V16.2977V16.2893V16.281V16.2727V16.2645V16.2563V16.2481V16.24V16.2319V16.2239V16.2159V16.2079V16.2V16.1921V16.1842V16.1764V16.1686V16.1609V16.1532V16.1455V16.1379V16.1303V16.1228V16.1152V16.1077V16.1003V16.0929V16.0855V16.0781V16.0708V16.0635V16.0562V16.049V16.0418V16.0347V16.0275V16.0204V16.0133V16.0063V15.9993V15.9923V15.9853V15.9784V15.9715V15.9646V15.9577V15.9509V15.9441V15.9373V15.9306V15.9239V15.9172V15.9105V15.9039V15.8972V15.8906V15.884V15.8775V15.871V15.8644V15.8579V15.8515V15.845V15.8386V15.8322V15.8258V15.8194V15.8131V15.8067V15.8004V15.7941V15.7878V15.7816V15.7753V15.7691V15.7629V15.7567V15.7505V15.7443V15.7382V15.7321V15.7259V15.7198V15.7137V15.7076V15.7016V15.6955V15.6895V15.6834V15.6774V15.6714V15.6654V15.6594V15.6534V15.6474V15.6414V15.6355V15.6295V15.6236V15.6177V15.6117V15.6058V15.5999V15.594V15.5881V15.5822V15.5763V15.5704V15.5645V15.5587V15.5528V15.5469V15.541V15.5352V15.5293V15.5234V15.5176V15.5117V15.5059V15.5V15.4941V15.4883V15.4824V15.4766V15.4707V15.4648V15.459V15.4531V15.4472V15.4413V15.4355V15.4296V15.4237V15.4178V15.4119V15.406V15.4001V15.3942V15.3883V15.3823V15.3764V15.3705V15.3645V15.3586V15.3526V15.3466V15.3406V15.3346V15.3286V15.3226V15.3166V15.3105V15.3045V15.2984V15.2924V15.2863V15.2802V15.2741V15.2679V15.2618V15.2557V15.2495V15.2433V15.2371V15.2309V15.2247V15.2184V15.2122V15.2059V15.1996V15.1933V15.1869V15.1806V15.1742V15.1678V15.1614V15.155V15.1485V15.1421V15.1356V15.129V15.1225V15.116V15.1094V15.1028V15.0961V15.0895V15.0828V15.0761V15.0694V15.0627V15.0559V15.0491V15.0423V15.0354V15.0285V15.0216V15.0147V15.0077V15.0007V14.9937V14.9867V14.9796V14.9725V14.9653V14.9582V14.951V14.9438V14.9365V14.9292V14.9219V14.9145V14.9071V14.8997V14.8923V14.8848V14.8772V14.8697V14.8621V14.8545V14.8468V14.8391V14.8314V14.8236V14.8158V14.8079V14.8V14.7921V14.7841V14.7761V14.7681V14.76V14.7519V14.7437V14.7355V14.7273V14.719V14.7107V14.7023V14.6939V14.6854V14.6769V14.6684V14.6598V14.6512V14.6425V14.6338V14.625V14.6162V14.6073V14.5984V14.5895V14.5805V14.5714V14.5623V14.5532V14.544V14.5348V14.5255V14.5161V14.5067V14.4973V14.4878V14.4783V14.4687V14.459V14.4493V14.4396V14.4298V14.4199V14.41V14.4001V14.39V14.38V14.3698V14.3597V14.3494V14.3391V14.3288V14.3184V14.3079V14.2974V14.2868V14.2761V14.2655V14.2547V14.2439V14.233V14.2221V14.2111V14.2V14.1889V14.1777V14.1665V14.1552V14.1438V14.1324V14.1209V14.1093V14.0977V14.086V14.0743V14.0624V14.0506V14.0386V14.0266V14.0145V14.0024V13.9902V13.9779V13.9655V13.9531V13.9406V13.9281V13.9155V13.9028V13.89V13.8772V13.8643V13.8513V13.8382V13.8251V13.8119V13.7987V13.7853V13.7719V13.7584V13.7449V13.7312V13.7175V13.7038V13.6899V13.676V13.6619V13.6479V13.6337V13.6195V13.6051V13.5907V13.5763V13.5617V13.5471V13.5324V13.5176V13.5027V13.4878V13.4727V13.4576V13.4424V13.4271V13.4118V13.3963V13.3808V13.3652V13.3495V13.3337V13.3179V13.3019V13.2859V13.2698V13.2536V13.2373V13.2209V13.2044V13.1879V13.1713V13.1545V13.1377V13.1208V13.1038V13.0868V13.0696V13.0523V13.035V13.0175V13C21 11.4269 20.4802 10.194 19.6431 9.35694C18.806 8.51982 17.5731 8 16 8C14.4269 8 13.1941 8.51982 12.3569 9.35694C11.5198 10.194 11 11.4269 11 13V13.0175V13.035V13.0523V13.0696V13.0868V13.1038V13.1208V13.1377V13.1545V13.1713V13.1879V13.2044V13.2209V13.2373V13.2536V13.2698V13.2859V13.3019V13.3179V13.3337V13.3495V13.3652V13.3808V13.3963V13.4118V13.4271V13.4424V13.4576V13.4727V13.4878V13.5027V13.5176V13.5324V13.5471V13.5617V13.5763V13.5907V13.6051V13.6195V13.6337V13.6479V13.6619V13.676V13.6899V13.7038V13.7175V13.7312V13.7449V13.7584V13.7719V13.7853V13.7987V13.8119V13.8251V13.8382V13.8513V13.8643V13.8772V13.89V13.9028V13.9155V13.9281V13.9406V13.9531V13.9655V13.9779V13.9902V14.0024V14.0145V14.0266V14.0386V14.0506V14.0624V14.0743V14.086V14.0977V14.1093V14.1209V14.1324V14.1438V14.1552V14.1665V14.1777V14.1889V14.2V14.2111V14.2221V14.233V14.2439V14.2547V14.2655V14.2761V14.2868V14.2974V14.3079V14.3184V14.3288V14.3391V14.3494V14.3597V14.3698V14.38V14.39V14.4001V14.41V14.4199V14.4298V14.4396V14.4493V14.459V14.4687V14.4783V14.4878V14.4973V14.5067V14.5161V14.5255V14.5348V14.544V14.5532V14.5623V14.5714V14.5805V14.5895V14.5984V14.6073V14.6162V14.625V14.6338V14.6425V14.6512V14.6598V14.6684V14.6769V14.6854V14.6939V14.7023V14.7107V14.719V14.7273V14.7355V14.7437V14.7519V14.76V14.7681V14.7761V14.7841V14.7921V14.8V14.8079V14.8158V14.8236V14.8314V14.8391V14.8468V14.8545V14.8621V14.8697V14.8772V14.8848V14.8923V14.8997V14.9071V14.9145V14.9219V14.9292V14.9365V14.9438V14.951V14.9582V14.9653V14.9725V14.9796V14.9867V14.9937V15.0007V15.0077V15.0147V15.0216V15.0285V15.0354V15.0423V15.0491V15.0559V15.0627V15.0694V15.0761V15.0828V15.0895V15.0961V15.1028V15.1094V15.116V15.1225V15.129V15.1356V15.1421V15.1485V15.155V15.1614V15.1678V15.1742V15.1806V15.1869V15.1933V15.1996V15.2059V15.2122V15.2184V15.2247V15.2309V15.2371V15.2433V15.2495V15.2557V15.2618V15.2679V15.2741V15.2802V15.2863V15.2924V15.2984V15.3045V15.3105V15.3166V15.3226V15.3286V15.3346V15.3406V15.3466V15.3526V15.3586V15.3645V15.3705V15.3764V15.3823V15.3883V15.3942V15.4001V15.406V15.4119V15.4178V15.4237V15.4296V15.4355V15.4413V15.4472V15.4531V15.459V15.4648V15.4707V15.4766V15.4824V15.4883V15.4941V15.5V15.5059V15.5117V15.5176V15.5234V15.5293V15.5352V15.541V15.5469V15.5528V15.5587V15.5645V15.5704V15.5763V15.5822V15.5881V15.594V15.5999V15.6058V15.6117V15.6177V15.6236V15.6295V15.6355V15.6414V15.6474V15.6534V15.6594V15.6654V15.6714V15.6774V15.6834V15.6895V15.6955V15.7016V15.7076V15.7137V15.7198V15.7259V15.7321V15.7382V15.7443V15.7505V15.7567V15.7629V15.7691V15.7753V15.7816V15.7878V15.7941V15.8004V15.8067V15.8131V15.8194V15.8258V15.8322V15.8386V15.845V15.8515V15.8579V15.8644V15.871V15.8775V15.884V15.8906V15.8972V15.9039V15.9105V15.9172V15.9239V15.9306V15.9373V15.9441V15.9509V15.9577V15.9646V15.9715V15.9784V15.9853V15.9923V15.9993V16.0063V16.0133V16.0204V16.0275V16.0347V16.0418V16.049V16.0562V16.0635V16.0708V16.0781V16.0855V16.0929V16.1003V16.1077V16.1152V16.1228V16.1303V16.1379V16.1455V16.1532V16.1609V16.1686V16.1764V16.1842V16.1921V16.2V16.2079V16.2159V16.2239V16.2319V16.24V16.2481V16.2563V16.2645V16.2727V16.281V16.2893V16.2977V16.3061V16.3146V16.3231V16.3316V16.3402V16.3488V16.3575V16.3662V16.375V16.3838V16.3927V16.4016V16.4105V16.4195V16.4286V16.4377V16.4468V16.456V16.4652V16.4745V16.4839V16.4933V16.5027V16.5122V16.5217V16.5313V16.541V16.5507V16.5604V16.5702V16.5801V16.59V16.5999V16.61V16.62V16.6302V16.6403V16.6506V16.6609V16.6712V16.6816V16.6921V16.7026V16.7132V16.7239V16.7345V16.7453V16.7561V16.767V16.7779V16.7889V16.8V16.8111V16.8223V16.8335V16.8448V16.8562V16.8676V16.8791V16.8907V16.9023V16.914V16.9257V16.9376V16.9494V16.9614V16.9734V16.9855V16.9976V17.0098V17.0221V17.0345V17.0469V17.0594V17.0719V17.0845V17.0972V17.11V17.1228V17.1357V17.1487V17.1618V17.1749V17.1881V17.2013V17.2147V17.2281V17.2416V17.2551V17.2688V17.2825V17.2963V17.3101V17.324V17.3381V17.3521V17.3663V17.3805V17.3949V17.4093V17.4237V17.4383V17.4529V17.4676V17.4824V17.4973V17.5122V17.5273V17.5424V17.5576V17.5729V17.5882V17.6037V17.6192V17.6348V17.6505V17.6663V17.6821V17.6981V17.7141V17.7302V17.7464V17.7627V17.7791V17.7956V17.8121V17.8287V17.8455V17.8623V17.8792V17.8962V17.9132V17.9304V17.9477V17.965V17.9825V18C11 19.304 10.4013 20.7352 9.89209 21.7405C9.84719 21.8291 9.80232 21.9157 9.75779 22L12 22H13L16 22H19H20Z" fill="#ffa425"/>
</svg>
