<svg width="52" height="52" viewBox="0 0 52 52" fill="none" xmlns="http://www.w3.org/2000/svg">
<rect width="52" height="52" rx="26" fill="#ffa425"/>
<path fill-rule="evenodd" clip-rule="evenodd" d="M17 13C15.3431 13 14 14.3431 14 16V25C14 26.6569 15.3431 28 17 28H22C23.6569 28 25 26.6569 25 25V16C25 14.3431 23.6569 13 22 13H17ZM16 16C16 15.4477 16.4477 15 17 15H22C22.5523 15 23 15.4477 23 16V25C23 25.5523 22.5523 26 22 26H17C16.4477 26 16 25.5523 16 25V16ZM17 30C15.3431 30 14 31.3431 14 33V36C14 37.6569 15.3431 39 17 39H22C23.6569 39 25 37.6569 25 36V33C25 31.3431 23.6569 30 22 30H17ZM16 33C16 32.4477 16.4477 32 17 32H22C22.5523 32 23 32.4477 23 33V36C23 36.5523 22.5523 37 22 37H17C16.4477 37 16 36.5523 16 36V33ZM27 16C27 14.3431 28.3431 13 30 13H36C37.6569 13 39 14.3431 39 16V21C39 22.6569 37.6569 24 36 24H30C28.3431 24 27 22.6569 27 21V16ZM30 15C29.4477 15 29 15.4477 29 16V21C29 21.5523 29.4477 22 30 22H36C36.5523 22 37 21.5523 37 21V16C37 15.4477 36.5523 15 36 15H30ZM30 26C28.3431 26 27 27.3431 27 29V36C27 37.6569 28.3431 39 30 39H36C37.6569 39 39 37.6569 39 36V29C39 27.3431 37.6569 26 36 26H30ZM29 29C29 28.4477 29.4477 28 30 28H36C36.5523 28 37 28.4477 37 29V36C37 36.5523 36.5523 37 36 37H30C29.4477 37 29 36.5523 29 36V29Z" fill="#FAFCFF"/>
</svg>
