<svg width="32" height="32" viewBox="0 0 32 32" fill="none" xmlns="http://www.w3.org/2000/svg">
<path fill-rule="evenodd" clip-rule="evenodd" d="M10.1628 11.3616C8.42015 12.7138 7.02775 14.344 6.20063 15.4223L6.19651 15.4277L6.19649 15.4277C6.06905 15.5915 6 15.7929 6 16C6 16.2071 6.06905 16.4085 6.19649 16.5723L6.20065 16.5777L6.20063 16.5777C7.00856 17.631 8.35582 19.2108 10.042 20.5438L12.2023 18.3835C11.799 17.7091 11.5672 16.9203 11.5672 16.0773C11.5672 13.592 13.5819 11.5773 16.0672 11.5773C16.9102 11.5773 17.699 11.8091 18.3734 12.2124L20.2834 10.3023C18.9362 9.51233 17.486 9 16.0002 9C13.9235 9 11.9166 10.0008 10.1628 11.3616ZM21.7382 8.84755C20.0703 7.79058 18.1189 7 16.0002 7C13.2912 7 10.8559 8.29238 8.93672 9.78151C7.00772 11.2783 5.49716 13.0535 4.61554 14.2027C4.21663 14.7169 4 15.3491 4 16C4 16.6509 4.21664 17.2832 4.61558 17.7974C5.44822 18.8827 6.84186 20.5264 8.61916 21.9666L7.29289 23.2929C6.90237 23.6834 6.90237 24.3166 7.29289 24.7071C7.68342 25.0976 8.31658 25.0976 8.70711 24.7071L10.2619 23.1523C11.9299 24.2093 13.8814 25 16.0002 25C18.7091 25 21.1445 23.7076 23.0636 22.2185C24.994 20.7207 26.5053 18.944 27.3867 17.7949L27.3868 17.7948C28.2046 16.7281 28.204 15.2729 27.3872 14.2059L27.3867 14.2051C26.5542 13.1198 25.1597 11.4745 23.381 10.0332L24.7071 8.70711C25.0976 8.31658 25.0976 7.68342 24.7071 7.29289C24.3166 6.90237 23.6834 6.90237 23.2929 7.29289L21.7382 8.84755ZM21.9581 11.4561L19.8204 13.5938C20.2923 14.3056 20.5672 15.1593 20.5672 16.0773C20.5672 18.5626 18.5525 20.5773 16.0672 20.5773C15.1492 20.5773 14.2955 20.3024 13.5837 19.8305L11.7167 21.6975C13.064 22.4876 14.5142 23 16.0002 23C18.0768 23 20.0837 21.9992 21.8376 20.6384C23.5801 19.2863 24.9725 17.6562 25.7996 16.5778C26.0664 16.2298 26.0672 15.7722 25.7996 15.4222C24.9916 14.3688 23.6443 12.789 21.9581 11.4561ZM15.0517 18.3625C15.362 18.5006 15.7057 18.5773 16.0672 18.5773C17.4479 18.5773 18.5672 17.458 18.5672 16.0773C18.5672 15.7158 18.4905 15.3721 18.3524 15.0618L15.0517 18.3625ZM16.8751 13.7107C16.6217 13.6242 16.3499 13.5773 16.0672 13.5773C14.6865 13.5773 13.5672 14.6966 13.5672 16.0773C13.5672 16.36 13.6141 16.6318 13.7006 16.8852L16.8751 13.7107Z" fill="#ffa425"/>
</svg>
