<svg width="52" height="52" viewBox="0 0 52 52" fill="none" xmlns="http://www.w3.org/2000/svg">
<rect width="52" height="52" rx="26" fill="#ffa425"/>
<path fill-rule="evenodd" clip-rule="evenodd" d="M34 15C34.5523 15 35 15.4477 35 16V19H39C39.5523 19 40 19.4477 40 20C40 20.5523 39.5523 21 39 21H35V25C35 25.5523 34.5523 26 34 26C33.4477 26 33 25.5523 33 25V21H29C28.4477 21 28 20.5523 28 20C28 19.4477 28.4477 19 29 19H33V16C33 15.4477 33.4477 15 34 15ZM16 19C15.4477 19 15 19.4477 15 20V33C15 33.5523 15.4477 34 16 34H34C34.5523 34 35 33.5523 35 33V28C35 27.4477 34.5523 27 34 27C33.4477 27 33 27.4477 33 28V32H17V21H26C26.5523 21 27 20.5523 27 20C27 19.4477 26.5523 19 26 19H16Z" fill="#FAFCFF"/>
</svg>
