<svg width="52" height="52" viewBox="0 0 52 52" fill="none" xmlns="http://www.w3.org/2000/svg">
<rect width="52" height="52" rx="26" fill="#ffa425"/>
<path fill-rule="evenodd" clip-rule="evenodd" d="M22 20H30V18C30 17.4477 29.5523 17 29 17H23C22.4477 17 22 17.4477 22 18V20ZM32 20V18C32 16.3431 30.6569 15 29 15H23C21.3431 15 20 16.3431 20 18V20H18C16.3431 20 15 21.3431 15 23V33C15 34.6569 16.3431 36 18 36H34C35.6569 36 37 34.6569 37 33V23C37 21.3431 35.6569 20 34 20H32ZM31 22H21H18C17.4477 22 17 22.4477 17 23V33C17 33.5523 17.4477 34 18 34H34C34.5523 34 35 33.5523 35 33V23C35 22.4477 34.5523 22 34 22H31Z" fill="#FAFCFF"/>
</svg>
