<svg width="32" height="32" viewBox="0 0 32 32" fill="none" xmlns="http://www.w3.org/2000/svg">
<path fill-rule="evenodd" clip-rule="evenodd" d="M12 6C12.5523 6 13 6.44772 13 7V8H19V7C19 6.44772 19.4477 6 20 6C20.5523 6 21 6.44772 21 7V8H22C24.2091 8 26 9.79086 26 12V22C26 24.2091 24.2091 26 22 26H10C7.79086 26 6 24.2091 6 22V12C6 9.79086 7.79086 8 10 8H11V7C11 6.44772 11.4477 6 12 6ZM19 10V11C19 11.5523 19.4477 12 20 12C20.5523 12 21 11.5523 21 11V10H22C23.1046 10 24 10.8954 24 12V14H8V12C8 10.8954 8.89543 10 10 10H11V11C11 11.5523 11.4477 12 12 12C12.5523 12 13 11.5523 13 11V10H19ZM8 16V22C8 23.1046 8.89543 24 10 24H22C23.1046 24 24 23.1046 24 22V16H8Z" fill="#ffa425"/>
</svg>
