<svg width="52" height="52" viewBox="0 0 52 52" fill="none" xmlns="http://www.w3.org/2000/svg">
<rect width="52" height="52" rx="26" fill="#ffa425"/>
<path fill-rule="evenodd" clip-rule="evenodd" d="M23.9497 12.8787C25.1213 11.7071 27.0208 11.7071 28.1924 12.8787L32.435 17.1213C33.6066 18.2929 33.6066 20.1924 32.435 21.364L31.2279 22.5711L34.2369 25.5801C34.7688 25.3185 35.3672 25.1716 36 25.1716C38.2091 25.1716 40 26.9624 40 29.1716C40 31.3807 38.2091 33.1716 36 33.1716C33.7909 33.1716 32 31.3807 32 29.1716C32 28.3224 32.2646 27.535 32.7159 26.8874L29.8137 23.9853L28.1924 25.6066C27.846 25.953 27.436 26.1969 27 26.3385V31.1716C28.6569 31.1716 30 32.5147 30 34.1716V36.1716C30 37.8284 28.6569 39.1716 27 39.1716H25C23.3431 39.1716 22 37.8284 22 36.1716V34.1716C22 32.5147 23.3431 31.1716 25 31.1716V26.2884C24.6172 26.1423 24.2582 25.9151 23.9497 25.6066L22.3787 24.0355L19.381 27.0332C19.773 27.6517 20 28.3851 20 29.1716C20 31.3807 18.2091 33.1716 16 33.1716C13.7909 33.1716 12 31.3807 12 29.1716C12 26.9624 13.7909 25.1716 16 25.1716C16.6969 25.1716 17.3521 25.3498 17.9227 25.6631L20.9645 22.6213L19.7071 21.364C18.5355 20.1924 18.5355 18.2929 19.7071 17.1213L23.9497 12.8787ZM26.7782 14.2929C26.3876 13.9024 25.7545 13.9024 25.3639 14.2929L21.1213 18.5355C20.7308 18.9261 20.7308 19.5592 21.1213 19.9497L25.3639 24.1924C25.7545 24.5829 26.3876 24.5829 26.7782 24.1924L31.0208 19.9497C31.4113 19.5592 31.4113 18.9261 31.0208 18.5355L26.7782 14.2929ZM25 33.1716C24.4477 33.1716 24 33.6193 24 34.1716V36.1716C24 36.7239 24.4477 37.1716 25 37.1716H27C27.5523 37.1716 28 36.7239 28 36.1716V34.1716C28 33.6193 27.5523 33.1716 27 33.1716H25ZM16 27.1716C14.8954 27.1716 14 28.067 14 29.1716C14 30.2761 14.8954 31.1716 16 31.1716C17.1046 31.1716 18 30.2761 18 29.1716C18 28.067 17.1046 27.1716 16 27.1716ZM34 29.1716C34 28.067 34.8954 27.1716 36 27.1716C37.1046 27.1716 38 28.067 38 29.1716C38 30.2761 37.1046 31.1716 36 31.1716C34.8954 31.1716 34 30.2761 34 29.1716Z" fill="#FAFCFF"/>
</svg>
