<svg width="32" height="32" viewBox="0 0 32 32" fill="none" xmlns="http://www.w3.org/2000/svg">
<path fill-rule="evenodd" clip-rule="evenodd" d="M13.9497 2.87868C15.1213 1.70711 17.0208 1.70711 18.1924 2.87868L22.435 7.12132C23.6066 8.29289 23.6066 10.1924 22.435 11.364L21.2279 12.5711L24.2369 15.5801C24.7688 15.3185 25.3672 15.1716 26 15.1716C28.2091 15.1716 30 16.9624 30 19.1716C30 21.3807 28.2091 23.1716 26 23.1716C23.7909 23.1716 22 21.3807 22 19.1716C22 18.3224 22.2646 17.535 22.7159 16.8874L19.8137 13.9853L18.1924 15.6066C17.846 15.953 17.436 16.1969 17 16.3385V21.1716C18.6569 21.1716 20 22.5147 20 24.1716V26.1716C20 27.8284 18.6569 29.1716 17 29.1716H15C13.3431 29.1716 12 27.8284 12 26.1716V24.1716C12 22.5147 13.3431 21.1716 15 21.1716V16.2884C14.6172 16.1423 14.2582 15.9151 13.9497 15.6066L12.3787 14.0355L9.38103 17.0332C9.77304 17.6517 10 18.3851 10 19.1716C10 21.3807 8.20914 23.1716 6 23.1716C3.79086 23.1716 2 21.3807 2 19.1716C2 16.9624 3.79086 15.1716 6 15.1716C6.69688 15.1716 7.35213 15.3498 7.92268 15.6631L10.9645 12.6213L9.70708 11.364C8.53551 10.1924 8.53551 8.29289 9.70708 7.12132L13.9497 2.87868ZM16.7782 4.29289C16.3876 3.90237 15.7545 3.90237 15.3639 4.29289L11.1213 8.53553C10.7308 8.92606 10.7308 9.55922 11.1213 9.94975L15.3639 14.1924C15.7545 14.5829 16.3876 14.5829 16.7782 14.1924L21.0208 9.94975C21.4113 9.55922 21.4113 8.92606 21.0208 8.53553L16.7782 4.29289ZM15 23.1716C14.4477 23.1716 14 23.6193 14 24.1716V26.1716C14 26.7239 14.4477 27.1716 15 27.1716H17C17.5523 27.1716 18 26.7239 18 26.1716V24.1716C18 23.6193 17.5523 23.1716 17 23.1716H15ZM6 17.1716C4.89543 17.1716 4 18.067 4 19.1716C4 20.2761 4.89543 21.1716 6 21.1716C7.10457 21.1716 8 20.2761 8 19.1716C8 18.067 7.10457 17.1716 6 17.1716ZM24 19.1716C24 18.067 24.8954 17.1716 26 17.1716C27.1046 17.1716 28 18.067 28 19.1716C28 20.2761 27.1046 21.1716 26 21.1716C24.8954 21.1716 24 20.2761 24 19.1716Z" fill="#ffa425"/>
</svg>
