<svg width="32" height="32" viewBox="0 0 32 32" fill="none" xmlns="http://www.w3.org/2000/svg">
<path fill-rule="evenodd" clip-rule="evenodd" d="M7 3C5.34315 3 4 4.34315 4 6V15C4 16.6569 5.34315 18 7 18H12C13.6569 18 15 16.6569 15 15V6C15 4.34315 13.6569 3 12 3H7ZM6 6C6 5.44772 6.44772 5 7 5H12C12.5523 5 13 5.44772 13 6V15C13 15.5523 12.5523 16 12 16H7C6.44772 16 6 15.5523 6 15V6ZM7 20C5.34315 20 4 21.3431 4 23V26C4 27.6569 5.34315 29 7 29H12C13.6569 29 15 27.6569 15 26V23C15 21.3431 13.6569 20 12 20H7ZM6 23C6 22.4477 6.44772 22 7 22H12C12.5523 22 13 22.4477 13 23V26C13 26.5523 12.5523 27 12 27H7C6.44772 27 6 26.5523 6 26V23ZM17 6C17 4.34315 18.3431 3 20 3H26C27.6569 3 29 4.34315 29 6V11C29 12.6569 27.6569 14 26 14H20C18.3431 14 17 12.6569 17 11V6ZM20 5C19.4477 5 19 5.44772 19 6V11C19 11.5523 19.4477 12 20 12H26C26.5523 12 27 11.5523 27 11V6C27 5.44772 26.5523 5 26 5H20ZM20 16C18.3431 16 17 17.3431 17 19V26C17 27.6569 18.3431 29 20 29H26C27.6569 29 29 27.6569 29 26V19C29 17.3431 27.6569 16 26 16H20ZM19 19C19 18.4477 19.4477 18 20 18H26C26.5523 18 27 18.4477 27 19V26C27 26.5523 26.5523 27 26 27H20C19.4477 27 19 26.5523 19 26V19Z" fill="#ffa425"/>
</svg>
