<svg width="32" height="32" viewBox="0 0 32 32" fill="none" xmlns="http://www.w3.org/2000/svg">
<path d="M20.7191 23.752L20.0791 18.628C19.9884 17.9022 19.6357 17.2346 19.0873 16.7506C18.5388 16.2667 17.8325 15.9997 17.1011 16H14.8971C14.166 16.0002 13.4602 16.2674 12.9122 16.7513C12.3642 17.2352 12.0117 17.9026 11.9211 18.628L11.2801 23.752C11.2449 24.0335 11.27 24.3193 11.3538 24.5903C11.4375 24.8614 11.578 25.1116 11.7658 25.3242C11.9536 25.5368 12.1845 25.707 12.4432 25.8235C12.7019 25.94 12.9824 26.0002 13.2661 26H18.7341C19.0177 26.0001 19.2981 25.9398 19.5566 25.8232C19.8152 25.7066 20.046 25.5364 20.2337 25.3238C20.4214 25.1112 20.5618 24.8611 20.6455 24.5901C20.7292 24.3191 20.7543 24.0334 20.7191 23.752V23.752Z" stroke="#6779D7" stroke-width="2" stroke-linecap="round" stroke-linejoin="round"/>
<path d="M16 12C17.6569 12 19 10.6569 19 9C19 7.34315 17.6569 6 16 6C14.3431 6 13 7.34315 13 9C13 10.6569 14.3431 12 16 12Z" stroke="#6779D7" stroke-width="2"/>
<path d="M8 15C9.10457 15 10 14.1046 10 13C10 11.8954 9.10457 11 8 11C6.89543 11 6 11.8954 6 13C6 14.1046 6.89543 15 8 15Z" stroke="#6779D7" stroke-width="2"/>
<path d="M24 15C25.1046 15 26 14.1046 26 13C26 11.8954 25.1046 11 24 11C22.8954 11 22 11.8954 22 13C22 14.1046 22.8954 15 24 15Z" stroke="#6779D7" stroke-width="2"/>
<path d="M23.9996 18H24.3056C24.779 17.9999 25.2371 18.1678 25.5984 18.4738C25.9597 18.7798 26.2007 19.204 26.2786 19.671L26.6116 21.671C26.6594 21.9575 26.6442 22.2511 26.567 22.5311C26.4899 22.8112 26.3526 23.0711 26.1649 23.2928C25.9771 23.5144 25.7433 23.6925 25.4797 23.8146C25.2161 23.9368 24.9291 24 24.6386 24H20.9996M7.9996 18H7.6936C7.22016 17.9999 6.76205 18.1678 6.40077 18.4738C6.0395 18.7798 5.79848 19.204 5.7206 19.671L5.3876 21.671C5.33981 21.9575 5.35502 22.2511 5.43217 22.5311C5.50931 22.8112 5.64655 23.0711 5.83432 23.2928C6.0221 23.5144 6.25591 23.6925 6.51949 23.8146C6.78307 23.9368 7.07009 24 7.3606 24H10.9996L7.9996 18Z" stroke="#6779D7" stroke-width="2" stroke-linecap="round" stroke-linejoin="round"/>
</svg>
