<svg width="32" height="32" viewBox="0 0 32 32" fill="none" xmlns="http://www.w3.org/2000/svg">
<path d="M14 11.9785V22.9785C14 23.2437 13.8946 23.4981 13.7071 23.6856C13.5196 23.8732 13.2652 23.9785 13 23.9785H12C11.7348 23.9785 11.4804 23.8732 11.2929 23.6856C11.1054 23.4981 11 23.2437 11 22.9785V17.9785M22 11.9785C22.7956 11.9785 23.5587 12.2946 24.1213 12.8572C24.6839 13.4198 25 14.1829 25 14.9785C25 15.7742 24.6839 16.5372 24.1213 17.0998C23.5587 17.6624 22.7956 17.9785 22 17.9785V11.9785Z" stroke="#6779D7" stroke-width="2" stroke-linecap="round" stroke-linejoin="round"/>
<path d="M14.5 11.9785L20.524 8.20846C20.6555 8.09897 20.8154 8.02922 20.9851 8.00737C21.1548 7.98552 21.3271 8.01249 21.482 8.08511C21.6369 8.15774 21.7679 8.27301 21.8597 8.41741C21.9514 8.56182 22.0001 8.72938 22 8.90046V21.0565C22.0001 21.2275 21.9514 21.3951 21.8597 21.5395C21.7679 21.6839 21.6369 21.7992 21.482 21.8718C21.3271 21.9444 21.1548 21.9714 20.9851 21.9496C20.8154 21.9277 20.6555 21.858 20.524 21.7485L14.5 17.9785H8C7.73478 17.9785 7.48043 17.8731 7.29289 17.6856C7.10536 17.498 7 17.2437 7 16.9785V12.9785C7 12.7132 7.10536 12.4589 7.29289 12.2714C7.48043 12.0838 7.73478 11.9785 8 11.9785H14.5Z" stroke="#6779D7" stroke-width="2" stroke-linecap="round" stroke-linejoin="round"/>
</svg>
