<svg width="32" height="32" viewBox="0 0 32 32" fill="none" xmlns="http://www.w3.org/2000/svg">
<path fill-rule="evenodd" clip-rule="evenodd" d="M20 11H12V9C12 7.34315 13.3431 6 15 6H17C18.6569 6 20 7.34315 20 9V11ZM22 9V11H24C25.6569 11 27 12.3431 27 14V24C27 25.6569 25.6569 27 24 27H8C6.34315 27 5 25.6569 5 24V14C5 12.3431 6.34315 11 8 11H10V9C10 6.23858 12.2386 4 15 4H17C19.7614 4 22 6.23858 22 9ZM11 13H21H24C24.5523 13 25 13.4477 25 14V24C25 24.5523 24.5523 25 24 25H8C7.44772 25 7 24.5523 7 24V14C7 13.4477 7.44772 13 8 13H11ZM17 17C17 16.4477 16.5523 16 16 16C15.4477 16 15 16.4477 15 17V21C15 21.5523 15.4477 22 16 22C16.5523 22 17 21.5523 17 21V17Z" fill="#ffa425"/>
</svg>
