<svg width="33" height="32" viewBox="0 0 33 32" fill="none" xmlns="http://www.w3.org/2000/svg">
<path fill-rule="evenodd" clip-rule="evenodd" d="M9.5 6C7.84315 6 6.5 7.34315 6.5 9V23C6.5 24.6569 7.84315 26 9.5 26H23.5C25.1569 26 26.5 24.6569 26.5 23V11.8284C26.5 11.0328 26.1839 10.2697 25.6213 9.70711L22.7929 6.87868C22.2303 6.31607 21.4672 6 20.6716 6H9.5ZM8.5 9C8.5 8.44772 8.94772 8 9.5 8H10.5V10C10.5 11.6569 11.8431 13 13.5 13H17.5C19.1569 13 20.5 11.6569 20.5 10V8H20.6716C20.9368 8 21.1911 8.10536 21.3787 8.29289L24.2071 11.1213C24.3946 11.3089 24.5 11.5632 24.5 11.8284V23C24.5 23.5523 24.0523 24 23.5 24V19C23.5 17.3431 22.1569 16 20.5 16H12.5C10.8431 16 9.5 17.3431 9.5 19V24C8.94772 24 8.5 23.5523 8.5 23V9ZM11.5 24H21.5V19C21.5 18.4477 21.0523 18 20.5 18H12.5C11.9477 18 11.5 18.4477 11.5 19V24ZM18.5 8H12.5V10C12.5 10.5523 12.9477 11 13.5 11H17.5C18.0523 11 18.5 10.5523 18.5 10V8Z" fill="#5B5A81"/>
</svg>
