<svg width="32" height="32" viewBox="0 0 32 32" fill="none" xmlns="http://www.w3.org/2000/svg">
<path d="M23.6329 16.9766C23.6766 16.6527 23.7 16.3266 23.7031 16C23.7 15.6734 23.6766 15.3473 23.6329 15.0234L25.803 13.3682C25.901 13.2952 25.968 13.1897 25.9911 13.0717C26.0142 12.9537 25.9919 12.8315 25.9283 12.7285L23.8735 9.25685C23.814 9.15272 23.7174 9.07339 23.602 9.03382C23.4866 8.99424 23.3604 8.99716 23.247 9.04201L20.686 10.0479C20.1531 9.65162 19.5704 9.32343 18.9519 9.07131L18.566 6.41994C18.549 6.30262 18.4888 6.19533 18.3966 6.11807C18.3044 6.04081 18.1865 5.99886 18.0649 6.00002H13.9452C13.8236 5.99886 13.7057 6.04081 13.6135 6.11807C13.5212 6.19533 13.461 6.30262 13.444 6.41994L13.0581 9.07131C12.4389 9.32186 11.8559 9.65016 11.324 10.0479L8.75297 9.04201C8.63962 8.99716 8.51336 8.99424 8.39796 9.03382C8.28256 9.07339 8.18601 9.15272 8.1265 9.25685L6.07167 12.7285C6.00812 12.8315 5.98577 12.9537 6.00889 13.0717C6.032 13.1897 6.09896 13.2952 6.19696 13.3682L8.36205 15.0234C8.31856 15.3473 8.29513 15.6734 8.29188 16C8.29496 16.3266 8.31839 16.6527 8.36205 16.9766L6.19696 18.6318C6.09896 18.7048 6.032 18.8103 6.00889 18.9283C5.98577 19.0463 6.00812 19.1685 6.07167 19.2715L8.1265 22.7432C8.18601 22.8473 8.28256 22.9266 8.39796 22.9662C8.51336 23.0058 8.63962 23.0028 8.75297 22.958L11.314 21.9521C11.8469 22.3484 12.4296 22.6766 13.0481 22.9287L13.434 25.5801C13.451 25.6974 13.5112 25.8047 13.6034 25.8819C13.6956 25.9592 13.8135 26.0011 13.9351 26H18.0448C18.1664 26.0011 18.2843 25.9592 18.3765 25.8819C18.4687 25.8047 18.529 25.6974 18.546 25.5801L18.9319 22.9287C19.5511 22.6781 20.1341 22.3498 20.666 21.9521L23.227 22.958C23.3403 23.0028 23.4666 23.0058 23.582 22.9662C23.6974 22.9266 23.7939 22.8473 23.8535 22.7432L25.9083 19.2715C25.9718 19.1685 25.9942 19.0463 25.9711 18.9283C25.948 18.8103 25.881 18.7048 25.783 18.6318L23.6329 16.9766ZM16 19.5059C15.2881 19.5068 14.5919 19.302 13.9994 18.9174C13.407 18.5327 12.945 17.9855 12.6719 17.345C12.3988 16.7045 12.3268 15.9994 12.4651 15.319C12.6033 14.6387 12.9457 14.0135 13.4487 13.5227C13.9518 13.0319 14.5929 12.6975 15.2911 12.5619C15.9893 12.4262 16.7131 12.4953 17.3709 12.7606C18.0287 13.0258 18.591 13.4751 18.9866 14.0517C19.3823 14.6284 19.5934 15.3064 19.5934 16C19.5941 16.4602 19.5016 16.9159 19.3214 17.3413C19.1411 17.7666 18.8765 18.1531 18.5427 18.4787C18.209 18.8043 17.8126 19.0626 17.3763 19.2389C16.94 19.4151 16.4723 19.5059 16 19.5059V19.5059Z" stroke="#ffa425" stroke-width="2" stroke-linecap="round" stroke-linejoin="round"/>
</svg>
