<svg width="32" height="32" viewBox="0 0 32 32" fill="none" xmlns="http://www.w3.org/2000/svg">
<path d="M26.5932 14.8137C27.1356 15.5223 27.1356 16.4789 26.5932 17.1863C24.8847 19.4137 20.7857 24 16.0002 24C11.2146 24 7.11563 19.4137 5.40716 17.1863C5.14326 16.847 5 16.4296 5 16C5 15.5704 5.14326 15.153 5.40716 14.8137C7.11563 12.5863 11.2146 8 16.0002 8C20.7857 8 24.8847 12.5863 26.5932 14.8137Z" stroke="#ffa425" stroke-width="2" stroke-linecap="round" stroke-linejoin="round"/>
<path d="M16.0674 19.5771C18.0004 19.5771 19.5674 18.0101 19.5674 16.0771C19.5674 14.1442 18.0004 12.5771 16.0674 12.5771C14.1344 12.5771 12.5674 14.1442 12.5674 16.0771C12.5674 18.0101 14.1344 19.5771 16.0674 19.5771Z" stroke="#ffa425" stroke-width="2" stroke-linecap="round" stroke-linejoin="round"/>
</svg>
