<svg width="32" height="32" viewBox="0 0 32 32" fill="none" xmlns="http://www.w3.org/2000/svg">
<path fill-rule="evenodd" clip-rule="evenodd" d="M24 5C24.5523 5 25 5.44772 25 6V9H29C29.5523 9 30 9.44772 30 10C30 10.5523 29.5523 11 29 11H25V15C25 15.5523 24.5523 16 24 16C23.4477 16 23 15.5523 23 15V11H19C18.4477 11 18 10.5523 18 10C18 9.44772 18.4477 9 19 9H23V6C23 5.44772 23.4477 5 24 5ZM6 9C5.44772 9 5 9.44772 5 10V23C5 23.5523 5.44772 24 6 24H24C24.5523 24 25 23.5523 25 23V18C25 17.4477 24.5523 17 24 17C23.4477 17 23 17.4477 23 18V22H7V11H16C16.5523 11 17 10.5523 17 10C17 9.44772 16.5523 9 16 9H6Z" fill="#ffa425"/>
</svg>
