<svg width="32" height="32" viewBox="0 0 32 32" fill="none" xmlns="http://www.w3.org/2000/svg">
<path fill-rule="evenodd" clip-rule="evenodd" d="M13 11C13 9.34315 14.3431 8 16 8C17.6569 8 19 9.34315 19 11C19 12.6569 17.6569 14 16 14C14.3431 14 13 12.6569 13 11ZM16 6C13.2386 6 11 8.23858 11 11C11 13.7614 13.2386 16 16 16C18.7614 16 21 13.7614 21 11C21 8.23858 18.7614 6 16 6ZM9 24C9 21.2386 11.2386 19 14 19H18C20.7614 19 23 21.2386 23 24V25C23 25.5523 23.4477 26 24 26C24.5523 26 25 25.5523 25 25V24C25 20.134 21.866 17 18 17H14C10.134 17 7 20.134 7 24V25C7 25.5523 7.44772 26 8 26C8.55228 26 9 25.5523 9 25V24Z" fill="#ffa425"/>
</svg>
