<svg width="32" height="32" viewBox="0 0 32 32" fill="none" xmlns="http://www.w3.org/2000/svg">
<path fill-rule="evenodd" clip-rule="evenodd" d="M12 10H20V8C20 7.44772 19.5523 7 19 7H13C12.4477 7 12 7.44772 12 8V10ZM22 10V8C22 6.34315 20.6569 5 19 5H13C11.3431 5 10 6.34315 10 8V10H8C6.34315 10 5 11.3431 5 13V23C5 24.6569 6.34315 26 8 26H24C25.6569 26 27 24.6569 27 23V13C27 11.3431 25.6569 10 24 10H22ZM21 12H11H8C7.44772 12 7 12.4477 7 13V23C7 23.5523 7.44772 24 8 24H24C24.5523 24 25 23.5523 25 23V13C25 12.4477 24.5523 12 24 12H21Z" fill="#ffa425"/>
</svg>
